<?xml version="1.0" encoding="UTF-8"?>
<svg width="501px" height="500px" viewBox="0 0 501 500" version="1.1" xmlns="http://www.w3.org/2000/svg" xmlns:xlink="http://www.w3.org/1999/xlink">
    <!-- Generator: Sketch 42 (36781) - http://www.bohemiancoding.com/sketch -->
    <title>Group</title>
    <desc>Created with Sketch.</desc>
    <defs></defs>
    <g id="Page-1" stroke="none" stroke-width="1" fill="none" fill-rule="evenodd">
        <g id="Group" fill-rule="nonzero" fill="#000000">
            <path d="M250,0 C112.02671,0.275947133 0.362151365,112.276003 0.500125,250.2495 C0.638098636,388.222998 112.526434,499.9995 250.5,499.9995 C388.473566,499.9995 500.361901,388.222998 500.499875,250.2495 C500.637849,112.276003 388.97329,0.275947133 251,0 L250,0 Z M250,10 C382.450432,10.275939 489.637839,117.798832 489.49987,250.249479 C489.3619,382.700127 381.950719,489.999479 249.5,489.999479 C117.049281,489.999479 9.63809978,382.700127 9.50013021,250.249479 C9.36216063,117.798832 116.549568,10.275939 249,10 L250,10 Z M29.4999973,346 C67.6717255,433.462417 154.03431,490 249.463631,490 C344.892951,490 431.255536,433.462417 469.427264,346 C396.106053,362 322.784842,362 249.463631,346 C176.14242,330 102.821208,330 29.4999973,346 L29.4999973,346 Z" id="Shape"></path>
        </g>
    </g>
</svg>