<?xml version="1.0" encoding="UTF-8"?>
<svg width="501px" height="500px" viewBox="0 0 501 500" version="1.1" xmlns="http://www.w3.org/2000/svg" xmlns:xlink="http://www.w3.org/1999/xlink">
    <!-- Generator: Sketch 42 (36781) - http://www.bohemiancoding.com/sketch -->
    <title>Group</title>
    <desc>Created with Sketch.</desc>
    <defs></defs>
    <g id="Page-1" stroke="none" stroke-width="1" fill="none" fill-rule="evenodd">
        <g id="Group" fill-rule="nonzero" fill="#000000">
            <path d="M250.005043,-2.84217094e-14 C112.031753,0.275947133 0.367194601,112.276003 0.505168236,250.2495 C0.643141872,388.222998 112.531477,499.9995 250.505043,499.9995 C388.47861,499.9995 500.366945,388.222998 500.504918,250.2495 C500.642892,112.276003 388.978334,0.275947133 251.005043,-2.84217094e-14 L250.005043,-2.84217094e-14 Z M250.005043,10 C382.455475,10.275939 489.642883,117.798832 489.504913,250.249479 C489.366943,382.700127 381.955763,489.999479 249.505043,489.999479 C117.054324,489.999479 9.64314302,382.700127 9.50517344,250.249479 C9.36720387,117.798832 116.554611,10.275939 249.005043,10 L250.005043,10 Z M57.5100837,106 C-16.7497863,205.01316 -3.53793089,344.25941 88.0181703,427.539747 C179.574271,510.820084 319.445896,510.820084 411.001997,427.539747 C502.558098,344.25941 515.769954,205.01316 441.510084,106 C377.510084,122 313.510084,122 249.510084,106 C185.510084,90 121.510084,90 57.5100837,106 L57.5100837,106 Z" id="Shape"></path>
        </g>
    </g>
</svg>