<?xml version="1.0" encoding="UTF-8" standalone="no"?>
<svg width="322px" height="216px" viewBox="0 0 322 216" version="1.1" xmlns="http://www.w3.org/2000/svg" xmlns:xlink="http://www.w3.org/1999/xlink">
    <!-- Generator: Sketch 41.2 (35397) - http://www.bohemiancoding.com/sketch -->
    <title>Group 2 Copy</title>
    <desc>Created with Sketch.</desc>
    <defs></defs>
    <g id="Page-1" stroke="none" stroke-width="1" fill="none" fill-rule="evenodd">
        <g id="Desktop-HD-V03-Copy-11" transform="translate(0.000000, -50.000000)" fill="#FFFFFF">
            <g id="Group-2-Copy" transform="translate(-2.000000, 50.000000)">
                <ellipse id="Oval" fill-opacity="0.5" cx="108.5" cy="108" rx="107.75" ry="108"></ellipse>
                <path d="M0.75,216 L0.75,216 C60.2586818,216 108.5,167.646753 108.5,108 C108.5,48.353247 60.2586818,0 0.75,0" id="Oval-Copy" fill-opacity="0.5"></path>
                <path d="M324,108 C324,137.917047 313.453937,163.396017 292.361496,184.437673 C271.269054,205.47933 245.898809,216 216.25,216 C186.601191,216 161.230946,205.47933 140.138504,184.437673 C119.046063,163.396017 108.5,137.917047 108.5,108 C108.5,78.2823999 119.046063,52.8532913 140.138504,31.7119114 C161.230946,10.5705314 186.601191,8.52651283e-14 216.25,8.52651283e-14 C245.898809,8.52651283e-14 271.269054,10.5705314 292.361496,31.7119114 C313.453937,52.8532913 324,78.2823999 324,108 Z M318.9259,108 C318.9259,79.6785288 308.877293,55.4460841 288.779778,35.3019391 C268.682263,15.157794 244.505912,5.08587258 216.25,5.08587258 C187.994088,5.08587258 163.817737,15.107933 143.720222,35.1523546 C123.622707,55.1967761 113.5741,79.4790818 113.5741,108 C113.5741,136.321471 123.622707,160.553916 143.720222,180.698061 C163.817737,200.842206 187.994088,210.914127 216.25,210.914127 C244.704898,210.914127 268.930994,200.842206 288.929017,180.698061 C308.927039,160.553916 318.9259,136.321471 318.9259,108 Z M312.359418,108 C312.359418,118.969584 310.76756,129.240949 307.583795,138.814404 L306.688366,138.515235 C309.076189,130.138462 310.270083,122.459869 310.270083,115.479224 C310.270083,109.096921 309.125935,103.961238 306.837604,100.072022 C304.549273,96.182806 301.614284,94.2382271 298.032548,94.2382271 C293.256901,94.2382271 290.869114,96.731277 290.869114,101.717452 C290.869114,103.512474 292.510718,106.653717 295.793975,111.141274 C299.077232,115.628831 300.718837,121.263124 300.718837,128.044321 C300.718837,133.828284 299.425452,141.008267 296.838643,149.584488 C291.46604,167.335269 280.919977,181.096904 265.200139,190.869806 C250.873197,199.84492 234.556647,204.33241 216.25,204.33241 C202.917985,204.33241 192.769887,202.736858 185.805402,199.545706 L186.103878,198.648199 C192.073437,201.041563 199.734256,202.238227 209.086565,202.238227 C215.454095,202.238227 220.528144,201.091424 224.308864,198.797784 C228.089585,196.504144 229.979917,193.662067 229.979917,190.271468 C229.979917,185.285294 227.492638,182.792244 222.518006,182.792244 C220.528153,182.792244 217.344436,184.487518 212.966759,187.878116 C208.589082,191.268715 203.117069,192.963989 196.550554,192.963989 C190.38201,192.963989 183.119155,191.667603 174.761773,189.074792 C157.052081,183.689724 143.322302,173.119192 133.572022,157.362881 C124.617684,143.002698 120.140582,126.548569 120.140582,108 C120.140582,100.421015 121.73244,90.2493713 124.916205,77.4847645 L125.811634,77.7839335 C123.423811,84.9640248 122.229917,92.6426184 122.229917,100.819945 C122.229917,114.781233 126.309054,121.761773 134.467452,121.761773 C139.243099,121.761773 141.630886,119.368445 141.630886,114.581717 C141.630886,112.587248 139.989282,109.346283 136.706025,104.858726 C133.422768,100.371169 131.781163,94.836598 131.781163,88.2548476 C131.781163,82.0719912 133.074548,74.7922857 135.661357,66.4155125 C141.03396,48.6647312 151.580023,34.903096 167.299861,25.1301939 C181.626803,16.1550798 197.943353,11.66759 216.25,11.66759 C227.194191,11.66759 237.342289,13.3628639 246.694598,16.7534626 L246.396122,17.6509695 C241.222504,15.0581588 233.561685,13.7617729 223.413435,13.7617729 C217.045905,13.7617729 211.971856,14.9085758 208.191136,17.2022161 C204.410415,19.4958563 202.520083,22.4376552 202.520083,26.0277008 C202.520083,30.8144284 205.007362,33.2077562 209.981994,33.2077562 C211.971847,33.2077562 215.155564,31.5623433 219.533241,28.2714681 C223.910918,24.980593 229.382931,23.3351801 235.949446,23.3351801 C241.919005,23.3351801 249.181859,24.631566 257.738227,27.2243767 C275.447919,32.6094452 289.177698,43.2796986 298.927978,59.2354571 C307.882316,73.3961927 312.359418,89.6508778 312.359418,108 Z M276.243767,136.720222 C276.243767,130.138471 274.452926,124.55404 270.871191,119.966759 C267.289456,115.379478 262.414389,113.085873 256.245845,113.085873 C251.271212,113.085873 247.042838,114.681424 243.560596,117.872576 C240.078353,121.063728 238.337258,124.952886 238.337258,129.540166 C238.337258,133.329659 239.332169,136.520763 241.322022,139.113573 C243.311875,141.706384 245.799154,143.00277 248.783934,143.00277 C251.569728,143.00277 252.962604,141.706384 252.962604,139.113573 C252.962604,137.916892 252.266166,136.421062 250.873269,134.626039 C249.480372,132.831016 248.783934,130.836576 248.783934,128.642659 C248.982919,124.254826 251.271215,122.060942 255.648892,122.060942 C262.613377,122.060942 265.996077,126.94732 265.797091,136.720222 C265.797091,142.10529 264.105742,146.493058 260.722992,149.883657 C257.340242,153.274255 253.161613,154.969529 248.186981,154.969529 C242.217422,154.969529 237.292609,152.52634 233.412396,147.639889 C229.532183,142.753438 227.592105,136.919701 227.592105,130.138504 C227.592105,114.58164 233.959539,105.10805 246.694598,101.717452 C249.480393,102.315792 251.569707,102.515236 252.962604,102.315789 C259.728104,102.315789 263.110803,100.620516 263.110803,97.2299169 C263.110803,94.2382122 260.22556,92.7423823 254.454986,92.7423823 C249.878324,92.7423823 247.391045,93.1412702 246.993075,93.9390582 C245.003222,92.9418233 243.411363,91.0471054 242.217452,88.2548476 C256.146422,77.6841577 263.110803,68.2105682 263.110803,59.833795 C263.110803,53.0525977 259.628613,49.6620499 252.664127,49.6620499 C246.694568,49.6620499 241.62052,52.7534317 237.441828,58.9362881 C233.263137,65.1191445 231.173823,71.9002401 231.173823,79.2797784 C231.173823,82.4709301 231.372805,84.764536 231.770776,86.1606648 C226.199187,90.1496044 218.339386,95.2354261 208.191136,101.418283 C208.191136,98.4265778 208.489609,95.434918 209.086565,92.4432133 C214.658153,86.4598039 217.443906,81.7728701 217.443906,78.3822715 C217.443906,75.7894607 216.250012,74.4930748 213.862188,74.4930748 C208.091615,74.4930748 204.21146,79.5788965 202.221607,89.7506925 C198.241901,94.736867 194.063272,97.2299169 189.685596,97.2299169 C187.098787,97.2299169 185.407437,95.734087 184.611496,92.7423823 C190.581055,90.7479125 196.301796,86.3601447 201.773892,79.5789474 C207.245988,72.79775 209.981994,66.0166544 209.981994,59.2354571 C209.981994,52.8531537 206.599295,49.6620499 199.833795,49.6620499 C193.466265,49.6620499 187.745524,53.5512076 182.671399,61.3296399 C177.597274,69.1080721 175.060249,77.0858317 175.060249,85.2631579 C170.682573,85.2631579 168.493767,82.2714981 168.493767,76.2880886 C168.493767,74.6925128 168.742495,72.8476559 169.239958,70.7534626 C169.737422,68.6592693 169.98615,67.5124664 169.98615,67.3130194 C169.98615,65.5179966 169.19022,64.6204986 167.598338,64.6204986 C162.623706,64.6204986 160.235918,68.9085444 160.434903,77.4847645 C160.633888,87.4571136 165.608446,92.8421013 175.358726,93.6398892 C176.950608,101.019427 181.129237,104.709141 187.894737,104.709141 C192.869369,104.709141 196.849016,103.313033 199.833795,100.520776 C199.63481,101.916904 199.336336,103.811622 198.938366,106.204986 C190.183013,110.792267 184.412525,113.883649 181.626731,115.479224 C176.055143,118.869823 171.379059,122.260371 167.598338,125.65097 C160.434867,132.23272 156.853186,139.312981 156.853186,146.891967 C156.853186,151.678694 158.345553,155.767296 161.330332,159.157895 C164.315112,162.548493 168.593232,164.243767 174.16482,164.243767 C187.894805,164.243767 197.644939,155.468232 203.415512,137.916898 C205.20638,132.531829 206.499765,123.457128 207.295706,110.692521 C217.244971,105.108005 226.398158,99.3241296 234.75554,93.3407202 C235.750467,94.9362961 236.745378,96.13296 237.740305,96.9307479 C223.612349,104.310286 216.548476,115.778316 216.548476,131.33518 C216.548476,139.9114 219.135247,147.290828 224.308864,153.473684 C230.079438,160.653776 237.839748,164.243767 247.590028,164.243767 C255.748425,164.243767 262.563569,161.40169 268.035665,155.717452 C273.507761,150.033213 276.243767,143.700866 276.243767,136.720222 Z M254.15651,61.3296399 C254.15651,65.7174735 249.579916,71.9002371 240.426593,79.8781163 C240.426593,74.0941539 241.769723,69.0083322 244.456025,64.6204986 C247.142326,60.232665 249.679351,58.0387812 252.067175,58.0387812 C253.460072,58.0387812 254.15651,59.1357231 254.15651,61.3296399 Z M201.326177,60.132964 C201.326177,63.7230096 199.634828,68.0110554 196.252078,72.9972299 C192.869327,77.9834044 188.79019,81.7728402 184.014543,84.365651 C184.014543,79.3794765 185.805384,73.7451838 189.387119,67.4626039 C192.968854,61.180024 196.252063,58.0387812 199.236842,58.0387812 C200.629739,58.0387812 201.326177,58.7368351 201.326177,60.132964 Z M197.74446,116.077562 C196.351563,126.249358 193.764793,134.925172 189.984072,142.105263 C185.40741,150.681483 180.134379,154.969529 174.16482,154.969529 C169.588158,154.969529 167.299861,152.376757 167.299861,147.191136 C167.299861,136.420999 177.447959,126.049911 197.74446,116.077562 Z" id="g" fill-opacity="0.818982111"></path>
            </g>
        </g>
    </g>
</svg>